<svg xmlns="http://www.w3.org/2000/svg" width="36" height="36"><g color="#000"><g transform="translate(169.946 -1018.362)"><circle cx="-151.946" cy="1036.362" r="16" fill="#e9eded" overflow="visible" style="isolation:auto;mix-blend-mode:normal"/><circle cx="-164.946" cy="1034.362" r="1" fill="#e4e8e8" overflow="visible" style="isolation:auto;mix-blend-mode:normal"/><circle style="isolation:auto;mix-blend-mode:normal" cx="-162.946" cy="1043.362" r="1" fill="#e4e8e8" overflow="visible"/><circle cx="-155.446" cy="1024.862" r="1.5" fill="#e4e8e8" overflow="visible" style="isolation:auto;mix-blend-mode:normal"/><circle style="isolation:auto;mix-blend-mode:normal" cx="-151.946" cy="1036.362" r="2" fill="#e4e8e8" overflow="visible"/><circle style="isolation:auto;mix-blend-mode:normal" cx="-152.446" cy="1046.862" r="1.5" fill="#e4e8e8" overflow="visible"/><circle cx="-156.946" cy="1032.362" r="1" fill="#e4e8e8" overflow="visible" style="isolation:auto;mix-blend-mode:normal"/><circle style="isolation:auto;mix-blend-mode:normal" cx="-144.946" cy="1031.362" r="1" fill="#e4e8e8" overflow="visible"/><circle cx="-143.946" cy="1044.362" r="1" fill="#e4e8e8" overflow="visible" style="isolation:auto;mix-blend-mode:normal"/><circle cx="-141.446" cy="1037.862" r="1.5" fill="#e4e8e8" overflow="visible" style="isolation:auto;mix-blend-mode:normal"/><circle style="isolation:auto;mix-blend-mode:normal" cx="-139.446" cy="1043.862" r=".5" fill="#e4e8e8" overflow="visible"/><circle style="isolation:auto;mix-blend-mode:normal" cx="-137.446" cy="1034.862" r=".5" fill="#e4e8e8" overflow="visible"/><circle style="isolation:auto;mix-blend-mode:normal" cx="-161.446" cy="1046.862" r=".5" fill="#e4e8e8" overflow="visible"/><circle style="isolation:auto;mix-blend-mode:normal" cx="-165.446" cy="1031.862" r=".5" fill="#e4e8e8" overflow="visible"/><circle style="isolation:auto;mix-blend-mode:normal" cx="-149.446" cy="1049.862" r=".5" fill="#e4e8e8" overflow="visible"/><circle style="isolation:auto;mix-blend-mode:normal" cx="-145.446" cy="1023.862" r=".5" fill="#e4e8e8" overflow="visible"/><circle style="isolation:auto;mix-blend-mode:normal" cx="-143.446" cy="1028.862" r=".5" fill="#e4e8e8" overflow="visible"/><path style="isolation:auto;mix-blend-mode:normal" fill="#c8d2d2" d="M-151.946 1034.362a2 2 0 0 0-.503.064 2 2 0 0 1 1.503 1.936 2 2 0 0 1-1.496 1.935 2 2 0 0 0 .496.064 2 2 0 0 0 2-2 2 2 0 0 0-2-2zm-3.5-10.999a1.5 1.5 0 0 0-.378.048 1.5 1.5 0 0 1 1.128 1.452 1.5 1.5 0 0 1-1.122 1.451 1.5 1.5 0 0 0 .372.048 1.5 1.5 0 0 0 1.5-1.5 1.5 1.5 0 0 0-1.5-1.5zm-1.5 8a1 1 0 0 0-.252.032 1 1 0 0 1 .752.967 1 1 0 0 1-.748.968 1 1 0 0 0 .248.032 1 1 0 0 0 1-1 1 1 0 0 0-1-1zm-8.5 0a.5.5 0 0 0-.126.015.5.5 0 0 1 .376.484.5.5 0 0 1-.374.484.5.5 0 0 0 .124.016.5.5 0 0 0 .5-.5.5.5 0 0 0-.5-.5zm.5 2a1 1 0 0 0-.252.032 1 1 0 0 1 .752.967 1 1 0 0 1-.748.968 1 1 0 0 0 .248.032 1 1 0 0 0 1-1 1 1 0 0 0-1-1zm2 9a1 1 0 0 0-.252.032 1 1 0 0 1 .752.967 1 1 0 0 1-.748.968 1 1 0 0 0 .248.032 1 1 0 0 0 1-1 1 1 0 0 0-1-1zm19 1a1 1 0 0 0-.252.032 1 1 0 0 1 .752.967 1 1 0 0 1-.748.968 1 1 0 0 0 .248.032 1 1 0 0 0 1-1 1 1 0 0 0-1-1zm-1-13a1 1 0 0 0-.251.032 1 1 0 0 1 .751.967 1 1 0 0 1-.748.968 1 1 0 0 0 .248.032 1 1 0 0 0 1-1 1 1 0 0 0-1-1zm-7.5 15a1.5 1.5 0 0 0-.378.048 1.5 1.5 0 0 1 1.128 1.452 1.5 1.5 0 0 1-1.122 1.451 1.5 1.5 0 0 0 .372.048 1.5 1.5 0 0 0 1.5-1.5 1.5 1.5 0 0 0-1.5-1.5zm11-9a1.5 1.5 0 0 0-.377.048 1.5 1.5 0 0 1 1.127 1.452 1.5 1.5 0 0 1-1.122 1.451 1.5 1.5 0 0 0 .372.048 1.5 1.5 0 0 0 1.5-1.5 1.5 1.5 0 0 0-1.5-1.5zm-20 10a.5.5 0 0 0-.126.015.5.5 0 0 1 .376.484.5.5 0 0 1-.374.484.5.5 0 0 0 .124.016.5.5 0 0 0 .5-.5.5.5 0 0 0-.5-.5zm12 3a.5.5 0 0 0-.126.015.5.5 0 0 1 .376.484.5.5 0 0 1-.374.484.5.5 0 0 0 .124.016.5.5 0 0 0 .5-.5.5.5 0 0 0-.5-.5zm10-6a.5.5 0 0 0-.126.015.5.5 0 0 1 .376.484.5.5 0 0 1-.374.484.5.5 0 0 0 .124.016.5.5 0 0 0 .5-.5.5.5 0 0 0-.5-.5zm2-9a.5.5 0 0 0-.126.015.5.5 0 0 1 .376.484.5.5 0 0 1-.374.484.5.5 0 0 0 .124.016.5.5 0 0 0 .5-.5.5.5 0 0 0-.5-.5zm-6-6a.5.5 0 0 0-.126.015.5.5 0 0 1 .376.484.5.5 0 0 1-.374.484.5.5 0 0 0 .124.016.5.5 0 0 0 .5-.5.5.5 0 0 0-.5-.5zm-2-5a.5.5 0 0 0-.126.015.5.5 0 0 1 .376.484.5.5 0 0 1-.374.484.5.5 0 0 0 .124.016.5.5 0 0 0 .5-.5.5.5 0 0 0-.5-.5z" overflow="visible"/><path style="isolation:auto;mix-blend-mode:normal" fill="#aab4b2" fill-opacity=".243" d="M-151.946 1020.362a16 16 0 0 0-1.982.143 16 16 0 0 1 13.982 15.857 16 16 0 0 1-14.017 15.858 16 16 0 0 0 2.017.142 16 16 0 0 0 16-16 16 16 0 0 0-16-16z" overflow="visible"/></g><path style="line-height:normal;text-indent:0;text-align:start;text-decoration-line:none;text-decoration-style:solid;text-decoration-color:#000;text-transform:none;block-progression:tb;isolation:auto;mix-blend-mode:normal" fill="#e9eded" d="M17.989 1017.37c-.556.01-1.112.038-1.664.098-.144.016-.287.034-.43.053a1 1 0 0 0-.002 0h-.014c-8.486 1.067-14.87 8.292-14.88 16.846.007 8.547 6.38 15.773 14.859 16.85h.002a1 1 0 0 0 .017 0c.424.051.851.087 1.278.107.272.02.543.034.816.04a1 1 0 0 0 .035 0c.48 0 .958-.027 1.436-.071a1 1 0 0 0 .002 0c.288-.027.575-.062.861-.104h.018c.265-.034.53-.076.795-.123a1 1 0 0 0 .015 0c.275-.054.55-.114.822-.181h.02c.263-.061.527-.128.787-.202a1 1 0 0 0 .02-.01c.273-.083.545-.174.814-.271l.02-.01c.253-.086.504-.176.753-.274a1 1 0 0 0 .022-.01c.266-.111.529-.23.789-.355h.002c.24-.109.48-.222.715-.342a1 1 0 0 0 .02-.01c.259-.14.515-.288.767-.441.234-.136.465-.277.693-.424a1 1 0 0 0 .02-.012c.22-.15.438-.306.652-.467l.018-.014c.233-.168.462-.341.687-.521a1 1 0 0 0 .018-.016c.204-.171.404-.347.6-.528h.003c.215-.189.425-.384.63-.584a1 1 0 0 0 .015-.018c.195-.2.387-.405.572-.615l.012-.014c.182-.197.359-.398.531-.603a1 1 0 0 0 .016-.018c.18-.225.353-.454.521-.688l.014-.018c.16-.214.317-.431.467-.652a1 1 0 0 0 .011-.02c.148-.228.288-.46.424-.694.154-.252.302-.51.442-.77a1 1 0 0 0 .01-.017c.116-.23.227-.461.334-.695l.008-.02c.125-.262.245-.526.357-.793a1 1 0 0 0 .01-.02c.098-.249.188-.5.273-.753l.008-.021c.098-.27.189-.541.272-.815a1 1 0 0 0 .006-.019c.073-.26.14-.523.201-.787l.006-.02c.068-.272.128-.547.182-.822a1 1 0 0 0 .004-.016c.047-.264.088-.53.123-.795l.002-.018a16.964 16.964 0 0 0 .176-2.297 1 1 0 0 0 0-.018 16.998 16.998 0 0 0-.176-2.299l-.002-.018a17.106 17.106 0 0 0-.123-.795 1 1 0 0 0-.004-.018 17.016 17.016 0 0 0-.182-.814l-.006-.02a16.896 16.896 0 0 0-.203-.797 1 1 0 0 0-.006-.022c-.081-.267-.17-.532-.264-.795-.09-.266-.186-.528-.289-.789a1 1 0 0 0-.008-.022c-.111-.265-.23-.528-.355-.787-.11-.241-.224-.481-.344-.717a1 1 0 0 0-.01-.02 16.98 16.98 0 0 0-.441-.767 16.88 16.88 0 0 0-.424-.694 1 1 0 0 0-.012-.019c-.15-.221-.306-.438-.467-.652l-.013-.018a17.074 17.074 0 0 0-.522-.688 1 1 0 0 0-.015-.018 16.982 16.982 0 0 0-.528-.6h-.004c-.189-.214-.384-.423-.584-.628a1 1 0 0 0-.015-.016c-.197-.192-.398-.38-.604-.563l-.016-.016c-.206-.19-.417-.374-.632-.552a1 1 0 0 0-.014-.012c-.21-.169-.425-.33-.643-.489l-.017-.014c-.224-.169-.452-.332-.684-.49a1 1 0 0 0-.02-.014 16.98 16.98 0 0 0-.69-.422h-.007c-.25-.152-.504-.298-.761-.437a1 1 0 0 0-.02-.01 17.023 17.023 0 0 0-.695-.334l-.02-.01a16.971 16.971 0 0 0-.79-.358 1 1 0 0 0-.022-.01c-.25-.098-.5-.187-.754-.273l-.02-.01a17.13 17.13 0 0 0-.814-.272 1 1 0 0 0-.02-.012c-.26-.073-.523-.14-.787-.2h-.02c-.27-.068-.542-.129-.816-.182a1 1 0 0 0-.02 0c-.277-.05-.557-.09-.837-.125h-.023c-.26-.038-.52-.07-.782-.096a1 1 0 0 0-.008 0 17.058 17.058 0 0 0-1.464-.072 1 1 0 0 0-.016 0v-.012zm.01 1a16 16 0 0 1 1.379.068 16 16 0 0 1 .757.094 16 16 0 0 1 .81.121 16 16 0 0 1 .788.176 16 16 0 0 1 .758.193 16 16 0 0 1 .785.262 16 16 0 0 1 .728.266 16 16 0 0 1 .764.343 16 16 0 0 1 .674.325 16 16 0 0 1 .723.414 16 16 0 0 1 .668.408 16 16 0 0 1 .66.474 16 16 0 0 1 .62.473 16 16 0 0 1 .61.533 16 16 0 0 1 .582.541 16 16 0 0 1 .553.596 16 16 0 0 1 .512.58 16 16 0 0 1 .504.664 16 16 0 0 1 .45.631 16 16 0 0 1 .411.67 16 16 0 0 1 .414.723 16 16 0 0 1 .324.673 16 16 0 0 1 .344.762 16 16 0 0 1 .271.744 16 16 0 0 1 .254.766 16 16 0 0 1 .196.77 16 16 0 0 1 .175.785 16 16 0 0 1 .118.763 16 16 0 0 1 .1.828 16 16 0 0 1 .068 1.354 16 16 0 0 1-.069 1.352 16 16 0 0 1-.1.828 16 16 0 0 1-.117.763 16 16 0 0 1-.175.791 16 16 0 0 1-.194.758 16 16 0 0 1-.261.785 16 16 0 0 1-.266.729 16 16 0 0 1-.344.763 16 16 0 0 1-.324.674 16 16 0 0 1-.414.723 16 16 0 0 1-.41.67 16 16 0 0 1-.451.63 16 16 0 0 1-.504.665 16 16 0 0 1-.512.58 16 16 0 0 1-.553.596 16 16 0 0 1-.595.552 16 16 0 0 1-.58.512 16 16 0 0 1-.665.504 16 16 0 0 1-.63.451 16 16 0 0 1-.67.41 16 16 0 0 1-.723.414 16 16 0 0 1-.674.325 16 16 0 0 1-.764.343 16 16 0 0 1-.728.266 16 16 0 0 1-.785.262 16 16 0 0 1-.758.193 16 16 0 0 1-.791.176 16 16 0 0 1-.764.117 16 16 0 0 1-.828.1 16 16 0 0 1-1.351.068 16 16 0 0 1-.77-.04 16 16 0 0 1-1.23-.1 16 16 0 0 1-.014 0 16 16 0 0 1-13.986-15.858 16 16 0 0 1 14.017-15.857 16 16 0 0 1 .012 0 16 16 0 0 1 .404-.05 16 16 0 0 1 1.567-.091z" font-family="sans-serif" font-weight="400" overflow="visible" transform="translate(0 -1016.362)"/></g></svg>