<svg xmlns="http://www.w3.org/2000/svg" width="64" height="64"><path style="text-indent:0;text-align:start;line-height:normal;text-transform:none;block-progression:tb;marker:none;-inkscape-font-specification:Sans" d="M11.781 0a.5.5 0 0 0-.031.031.5.5 0 0 0-.188.125C5.359 2.762 1.283 8.7 1.283 15.375 1.281 24.524 8.722 32 17.936 32c4.845 0 9.454-2.123 12.657-5.844a.5.5 0 0 0-.438-.812c-.479.067-1.094.062-1.625.062-9.816 0-17.687-7.794-17.687-17.531 0-2.39.52-4.878 1.531-7.125.009-.021.022-.041.031-.063A.5.5 0 0 0 12.437.5a.5.5 0 0 0-.656-.5zm-.719 1.563c-.747 2.043-1.218 4.199-1.218 6.312 0 3.077.768 5.984 2.094 8.531-.091-.011-.187-.031-.282-.031-1.265 0-2.344 1.05-2.344 2.313 0 1.262 1.104 2.25 2.344 2.25 1.036 0 1.872-.704 2.125-1.657 3.415 4.346 8.741 7.125 14.75 7.125h.375C25.96 29.313 22.065 31 17.938 31 9.26 31 2.28 23.983 2.28 15.375c0-5.925 3.477-11.17 8.781-13.813zm-4.28 5.812c-.557 0-.938.447-.938 1 0 .553.382 1.031.937 1.031.55 0 1.032-.478 1.032-1.031 0-.553-.478-1-1.032-1zm-1.97 4.5c-.854 0-1.562.709-1.562 1.563 0 .814.708 1.468 1.563 1.468.814 0 1.5-.654 1.5-1.469 0-.853-.686-1.562-1.5-1.562zm0 1c.248 0 .5.212.5.563 0 .238-.252.468-.5.468-.358 0-.562-.23-.562-.469 0-.35.204-.562.563-.562zm6.844 4.5c.706 0 1.219.593 1.219 1.313s-.488 1.25-1.219 1.25c-.73 0-1.344-.556-1.344-1.25s.639-1.313 1.344-1.313zm-4.875 3.531c-.814 0-1.468.709-1.468 1.563 0 .814.654 1.468 1.468 1.468.855 0 1.563-.654 1.563-1.468 0-.854-.708-1.563-1.563-1.563zm0 1c.359 0 .563.212.563.563 0 .238-.204.468-.563.468a.491.491 0 0 1-.468-.468c0-.35.221-.563.468-.563zm10.625 2c-1.104 0-2.031.898-2.031 2 0 1.103.927 2.032 2.031 2.032 1.105 0 2-.93 2-2.032 0-1.102-.895-2-2-2zm0 1c.563 0 1 .448 1 1 0 .553-.437 1.032-1 1.032a1.046 1.046 0 0 1-1.031-1.032c0-.552.468-1 1.031-1zm3.032 3.594c-.228 0-.47.214-.47.438 0 .302.242.53.47.53a.52.52 0 0 0 .53-.53c0-.228-.227-.438-.53-.438z" color="#000" enable-background="accumulate" font-family="Sans" font-weight="400" overflow="visible"/></svg>